<svg version="1.1" id="Layer_14" xmlns="http://www.w3.org/2000/svg" x="0" y="0" viewBox="0 0 400 305.2" xml:space="preserve"><style>.st1{fill:#fff}</style><path fill="#0067d7" d="M0 0h400v305.2H0z"/><g id="_x31_0_with_Shadow_2_"><path class="st1" d="M240.4 284c-49.5 0-91.8-26.5-114.4-66.9v58.2H56.3V102.7H27.9V61.5c10.7-3.1 20.6-7.3 28.9-16.2 5.4-5.1 8.3-10.5 12-16.4h57.5v57.3c22.6-40 64.8-66.2 114.1-66.2 72.8 0 131.8 59.1 131.8 132s-59 132-131.8 132z"/><radialGradient id="SVGID_1_" cx="126.451" cy="206.5" r="127.428" gradientUnits="userSpaceOnUse"><stop offset=".045" stop-color="#fff"/><stop offset=".239" stop-color="#f9f9f9"/><stop offset=".51" stop-color="#e6e6e6"/><stop offset=".826" stop-color="#c9c9c9"/><stop offset="1" stop-color="#b5b5b5"/></radialGradient><path d="M129.2 217.1v5.4c23.2 37.3 63.9 61.5 111.2 61.5h1.8c-48.9-.5-90.7-26.9-113-66.9z" fill="url(#SVGID_1_)"/><path class="st1" d="M31.1 102.8V61.6c10.7-3.1 20.5-7.3 28.9-16.2 5.4-5.1 8.3-10.5 12-16.4h-3.2c-3.7 5.8-6.6 11.3-12 16.4-8.3 8.9-18.2 13-28.9 16.2v41.2h28.4v172.6h3.2V102.8H31.1zM175.1 156.8c.5 8.8 2.6 17.2 6.1 24.9h127.4c3.5-7.6 5.6-16 6.1-24.9H175.1zM308.5 123.6H181.4c-3.5 7.6-5.7 16-6.2 24.8h139.6c-.6-8.8-2.8-17.2-6.3-24.8z"/><path d="M244.9 82.8c-24.8 0-46.6 12.9-59 32.4h118c-12.4-19.5-34.2-32.4-59-32.4z" fill-rule="evenodd" clip-rule="evenodd" fill="#fff"/></g><radialGradient id="SVGID_2_" cx="240.661" cy="151.972" r="69.937" gradientUnits="userSpaceOnUse"><stop offset="0" stop-color="#ffd63f"/><stop offset=".6" stop-color="#ff9633"/><stop offset="1" stop-color="#cd5505"/></radialGradient><path d="M171.2 156c.5 8.8 2.6 17.2 6.1 24.9h127.4c3.5-7.6 5.6-16 6.1-24.9H171.2z" fill="url(#SVGID_2_)"/><radialGradient id="SVGID_3_" cx="240.661" cy="151.972" r="69.938" gradientUnits="userSpaceOnUse"><stop offset="0" stop-color="red"/><stop offset=".148" stop-color="#fb0309"/><stop offset=".388" stop-color="#f10b21"/><stop offset=".6" stop-color="#e6133c"/><stop offset="1" stop-color="#8e0006"/></radialGradient><path d="M304.5 122.8H177.4c-3.5 7.6-5.7 16-6.2 24.8h139.6c-.6-8.8-2.8-17.2-6.3-24.8z" fill="url(#SVGID_3_)"/><radialGradient id="SVGID_4_" cx="240.66" cy="151.971" r="69.938" gradientUnits="userSpaceOnUse"><stop offset="0" stop-color="#0362db"/><stop offset=".55" stop-color="#005eff"/><stop offset=".621" stop-color="#0058f6"/><stop offset=".737" stop-color="#0049de"/><stop offset=".881" stop-color="#0030b6"/><stop offset="1" stop-color="#001991"/></radialGradient><path d="M241 221.9c24.9 0 46.8-13.1 59.2-32.7H181.8c12.3 19.6 34.2 32.7 59.2 32.7z" fill="url(#SVGID_4_)"/><radialGradient id="SVGID_5_" cx="240.661" cy="151.97" r="69.938" gradientUnits="userSpaceOnUse"><stop offset="0" stop-color="#bf6bd4"/><stop offset=".173" stop-color="#be69dd"/><stop offset=".454" stop-color="#ba62f5"/><stop offset=".55" stop-color="#b95fff"/><stop offset=".609" stop-color="#b159f6"/><stop offset=".705" stop-color="#9b4ade"/><stop offset=".826" stop-color="#7731b6"/><stop offset=".966" stop-color="#450f7f"/><stop offset="1" stop-color="#380671"/></radialGradient><path d="M241 82c-24.8 0-46.6 12.9-59 32.4h118C287.6 94.9 265.8 82 241 82z" fill-rule="evenodd" clip-rule="evenodd" fill="url(#SVGID_5_)"/></svg>