<svg version="1.1" id="Layer_1" xmlns="http://www.w3.org/2000/svg" xmlns:xlink="http://www.w3.org/1999/xlink" x="0" y="0" viewBox="0 0 155.6 30" xml:space="preserve"><style>.st0{fill:#fff}</style><path class="st0" d="M155.5 25H0V4.9h155.6V25h-.1z"/><path d="M154.3 23.7H1.3V6.1h153v17.6z" fill="#f5f5f5"/><path d="M154.3 23.7H1.3V15h153v8.7z" fill="#e6e6e6"/><linearGradient id="SVGID_1_" gradientUnits="userSpaceOnUse" x1="77.902" y1="30.726" x2="77.506" y2="-5.109" gradientTransform="matrix(1 0 0 -1 0 32)"><stop offset="0" stop-color="#004196"/><stop offset=".021" stop-color="#004aa3"/><stop offset=".077" stop-color="#005fc1"/><stop offset=".126" stop-color="#006bd3"/><stop offset=".16" stop-color="#0070da"/><stop offset=".536" stop-color="#0067d7"/><stop offset=".576" stop-color="#0061ca"/><stop offset=".649" stop-color="#0050a7"/><stop offset=".747" stop-color="#003670"/><stop offset=".78" stop-color="#002c5c"/><stop offset=".93"/></linearGradient><path d="M57.9 0h39.7v30H57.9V0z" fill="url(#SVGID_1_)"/><defs><path id="SVGID_2_" d="M84.9 0h12.7v20.2H84.9z"/></defs><clipPath id="SVGID_3_"><use xlink:href="#SVGID_2_" overflow="visible"/></clipPath><path d="M96 7.1h.2c.3-.1.5-.4.5-.7-.3 0-.6 0-.9-.1-.2-.1-.3-.1-.5-.2v.2c0 .4.3.8.7.8z" fill="none"/><g id="_x31_0_with_Shadow_2_"><path d="M60.2 10.6L61.6 9 61 6.4l-.8-.6v4.8z" fill="#666"/><path d="M60.2 5.8l.9.6 3.3-.5.3-2.8-.4-.6c-1 2.1-2.6 2.8-4.1 3.3z"/><path d="M64.8 3.1l5.1.2.7-.8h-6.3l.5.6z" fill-rule="evenodd" clip-rule="evenodd" fill="#595959"/><path d="M69.9 3.3l.4 5.4.5-1.5v.1-4.7"/><linearGradient id="SVGID_4_" gradientUnits="userSpaceOnUse" x1="81.071" y1="32.721" x2="82.155" y2="17.819" gradientTransform="matrix(1 0 0 -1 0 32)"><stop offset="0" stop-color="#666"/><stop offset="1"/></linearGradient><path d="M81.6 28.5C89.3 28.5 95 22.2 95 15c0-7.4-6.1-13.5-13.5-13.5-4.8 0-8.9 2.6-10.8 5.6l-.5 1.7-.5 10.4 1 3.5v-.1c2.3 3.7 6.6 5.9 10.9 5.9z" fill="url(#SVGID_4_)"/><path d="M70.6 22.8l-.5-1.7-.6 5.3.5.7.6.6v-4.9z" fill="#404040"/><path d="M70.6 27.6l-.4-.5h-6.8l-.5.4v.1h7.7z" fill="#1a1a1a"/><path d="M62.9 27.6l.6-.5.2-16.8v-.5l-.8.8v17z" fill="#4d4d4d"/><path d="M63.7 9.8l.2-.4-2.3-.4-1.4 1.6h2.7l.8-.8z"/><path class="st0" d="M81.5 28c-4.9 0-9.1-2.6-11.3-6.6v5.7h-6.9v-17h-2.8V6c1.1-.3 2-.7 2.9-1.6.5-.5.8-1 1.2-1.6h5.7v5.7c2.2-4 6.4-6.5 11.3-6.5 7.2 0 13 5.8 13 13-.1 7.2-5.9 13-13.1 13z"/><radialGradient id="SVGID_5_" cx="70.279" cy="11.628" r="12.571" gradientTransform="matrix(1 0 0 -1 0 32)" gradientUnits="userSpaceOnUse"><stop offset=".045" stop-color="#fff"/><stop offset=".239" stop-color="#f9f9f9"/><stop offset=".51" stop-color="#e6e6e6"/><stop offset=".826" stop-color="#c9c9c9"/><stop offset="1" stop-color="#b5b5b5"/></radialGradient><path d="M70.5 21.4v.5c2.3 3.7 6.3 6.1 11 6.1h.2c-4.8 0-8.9-2.6-11.2-6.6z" fill="url(#SVGID_5_)"/><path class="st0" d="M60.9 10.1V6c1.1-.3 2-.7 2.8-1.6.5-.5.8-1 1.2-1.6h-.3c-.4.6-.7 1.2-1.2 1.7-.8.9-1.8 1.3-2.8 1.6v4.1h2.8v17h.3v-17l-2.8-.1zm14.2 5.4c0 .9.3 1.7.6 2.5h12.6c.3-.8.6-1.6.6-2.5H75.1zm13.1-3.3H75.7c-.3.8-.6 1.6-.6 2.4h13.8c-.1-.8-.3-1.7-.7-2.4z"/><path d="M82 8.2c-2.4 0-4.6 1.3-5.8 3.2h11.6c-1.2-2-3.4-3.2-5.8-3.2z" fill-rule="evenodd" clip-rule="evenodd" fill="#fff"/></g><radialGradient id="SVGID_6_" cx="81.546" cy="17.008" r="6.899" gradientTransform="matrix(1 0 0 -1 0 32)" gradientUnits="userSpaceOnUse"><stop offset="0" stop-color="#ffd63f"/><stop offset=".6" stop-color="#ff9633"/><stop offset="1" stop-color="#cd5505"/></radialGradient><path d="M74.7 15.4c0 .9.3 1.7.6 2.5h12.6c.3-.8.6-1.6.6-2.5H74.7z" fill="url(#SVGID_6_)"/><radialGradient id="SVGID_7_" cx="81.546" cy="17.008" r="6.899" gradientTransform="matrix(1 0 0 -1 0 32)" gradientUnits="userSpaceOnUse"><stop offset="0" stop-color="red"/><stop offset=".148" stop-color="#fb0309"/><stop offset=".388" stop-color="#f10b21"/><stop offset=".6" stop-color="#e6133c"/><stop offset="1" stop-color="#8e0006"/></radialGradient><path d="M87.8 12.1H75.3c-.3.8-.6 1.6-.6 2.4h13.8c-.1-.8-.3-1.6-.7-2.4z" fill="url(#SVGID_7_)"/><radialGradient id="SVGID_8_" cx="81.55" cy="17.008" r="6.896" gradientTransform="matrix(1 0 0 -1 0 32)" gradientUnits="userSpaceOnUse"><stop offset="0" stop-color="#0362db"/><stop offset=".55" stop-color="#005eff"/><stop offset=".621" stop-color="#0058f6"/><stop offset=".737" stop-color="#0049de"/><stop offset=".881" stop-color="#0030b6"/><stop offset="1" stop-color="#001991"/></radialGradient><path d="M81.6 21.9c2.5 0 4.6-1.3 5.8-3.2H75.7c1.3 1.9 3.4 3.2 5.9 3.2z" fill="url(#SVGID_8_)"/><radialGradient id="SVGID_9_" cx="81.546" cy="17.008" r="6.899" gradientTransform="matrix(1 0 0 -1 0 32)" gradientUnits="userSpaceOnUse"><stop offset="0" stop-color="#bf6bd4"/><stop offset=".173" stop-color="#be69dd"/><stop offset=".454" stop-color="#ba62f5"/><stop offset=".55" stop-color="#b95fff"/><stop offset=".609" stop-color="#b159f6"/><stop offset=".705" stop-color="#9b4ade"/><stop offset=".826" stop-color="#7731b6"/><stop offset=".966" stop-color="#450f7f"/><stop offset="1" stop-color="#380671"/></radialGradient><path d="M81.6 8.1c-2.4 0-4.6 1.3-5.8 3.2h11.6c-1.2-1.9-3.4-3.2-5.8-3.2z" fill-rule="evenodd" clip-rule="evenodd" fill="url(#SVGID_9_)"/><path d="M101.2 18.4c0-1 .8-1.8 1.8-1.8s1.9.8 1.9 1.8-.8 1.8-1.8 1.8c-1.1 0-1.9-.8-1.9-1.8zm13.9-4.2c-.2-.6-.5-1-.9-1.2s-1-.3-1.6-.3c-.9 0-1.6.2-2.2.7-.5.5-.8 1.2-.8 2.1 0 .9.3 1.6.8 2.1s1.2.7 2.2.7c.7 0 1.2-.2 1.7-.5s.7-.8.8-1.4h3.1c-.1.8-.4 1.5-.7 2s-.8.9-1.3 1.2c-.5.3-1.1.5-1.7.6-.6.1-1.3.2-2.1.2-.9 0-1.6-.1-2.3-.3-.7-.2-1.3-.5-1.8-.9s-.9-.9-1.2-1.5-.4-1.4-.4-2.2c0-.9.1-1.6.4-2.2.3-.6.7-1.1 1.2-1.5s1.2-.7 1.9-.9 1.6-.3 2.5-.3c.6 0 1.2.1 1.8.2.6.1 1.2.3 1.7.6s1 .7 1.3 1.1c.4.5.6 1.1.8 1.8h-3.2v-.1zm4.7 1.2c0-.9.1-1.6.4-2.2.3-.6.7-1.1 1.2-1.5s1.2-.7 1.9-.9 1.6-.3 2.5-.3 1.7.1 2.4.3c.7.2 1.4.5 1.9.9s.9.9 1.2 1.5.4 1.4.4 2.2c0 .9-.1 1.6-.4 2.2-.3.6-.7 1.1-1.2 1.5s-1.2.7-1.9.9c-.7.2-1.6.3-2.4.3-.9 0-1.7-.1-2.5-.3-.7-.2-1.4-.5-1.9-.9s-.9-.9-1.2-1.5c-.2-.6-.4-1.4-.4-2.2zm3.1 0c0 .9.3 1.6.8 2.1s1.2.7 2.2.7c.9 0 1.6-.2 2.2-.7.5-.5.8-1.2.8-2.1s-.3-1.6-.8-2.1-1.2-.7-2.2-.7c-.9 0-1.6.2-2.2.7-.5.5-.8 1.2-.8 2.1zm25.1-.9c0-.3-.1-.6-.2-.8-.1-.2-.2-.4-.4-.5l-.6-.3c-.2-.1-.4-.1-.7-.1s-.6 0-.9.1c-.3.1-.5.2-.7.4s-.4.4-.5.7-.2.6-.2.9v4.9h-3v-5.5c0-.3-.1-.6-.2-.8-.1-.2-.2-.4-.4-.5l-.6-.3c-.2-.1-.4-.1-.6-.1-.3 0-.6 0-.9.1-.3.1-.5.2-.7.4s-.4.4-.5.7-.2.6-.2.9v4.9h-3v-9.1h2.9v1.3c.1-.2.3-.4.6-.6.2-.2.5-.4.8-.5s.7-.3 1.1-.4c.4-.1.8-.1 1.2-.1.9 0 1.6.2 2.1.5s.9.7 1.1 1.2c.4-.5.9-1 1.6-1.3.6-.3 1.3-.4 2.2-.4.5 0 .9.1 1.3.2s.8.3 1.2.5c.3.2.6.6.8 1s.3.9.3 1.5v6.2h-3l.1-5.1zM3.3 8.2h3.2v9.4h7.1v2.3H3.3V8.2zm10.9 7.3c0-.8.1-1.5.4-2.1.3-.6.7-1.1 1.2-1.5s1.1-.7 1.8-.8c.7-.2 1.5-.3 2.4-.3s1.6.1 2.4.3c.7.2 1.3.5 1.8.8.5.4.9.9 1.2 1.5s.4 1.3.4 2.1-.1 1.5-.4 2.1c-.3.6-.7 1.1-1.2 1.5s-1.1.7-1.8.8c-.7.2-1.5.3-2.4.3s-1.7-.1-2.4-.3c-.7-.2-1.3-.5-1.8-.8-.5-.4-.9-.9-1.2-1.5-.2-.5-.4-1.2-.4-2.1zm3 0c0 .9.2 1.5.7 2s1.2.7 2.1.7c.9 0 1.6-.2 2.1-.7s.7-1.1.7-2-.2-1.5-.7-2-1.2-.7-2.1-.7c-.9 0-1.6.2-2.1.7s-.7 1.2-.7 2zm18-1.1c-.2-.6-.5-1-.9-1.2s-.9-.3-1.5-.3c-.9 0-1.6.2-2.1.7s-.7 1.1-.7 2c0 .9.2 1.5.7 2s1.2.7 2.1.7c.6 0 1.2-.2 1.6-.5.4-.3.7-.8.8-1.3h3c-.1.8-.4 1.4-.7 1.9-.3.5-.7.9-1.2 1.2-.5.3-1 .5-1.7.6-.6.1-1.3.2-2 .2-.8 0-1.6-.1-2.3-.3-.7-.2-1.3-.5-1.7-.8-.5-.4-.9-.9-1.1-1.5-.3-.6-.4-1.3-.4-2.1s.1-1.5.4-2.1c.3-.6.7-1.1 1.2-1.5s1.1-.7 1.8-.8c.7-.2 1.5-.3 2.4-.3.6 0 1.1 0 1.7.1.6.1 1.1.3 1.6.6s.9.6 1.3 1.1c.4.5.6 1.1.8 1.8h-3.1v-.2zm4.7-.6c.1-.7.3-1.2.6-1.6.3-.4.7-.7 1.2-.9s1-.3 1.6-.4c.6-.1 1.2-.1 1.8-.1 1 0 1.9.1 2.5.2.7.2 1.2.4 1.5.6.4.3.6.6.8 1 .1.4.2.8.2 1.2v4.4c0 .4 0 .7.1 1s.1.5.2.8h-2.9c-.1-.2-.1-.4-.1-.5 0-.2-.1-.3-.1-.5-.3.3-.5.5-.9.6-.3.2-.7.3-1.1.4s-.7.2-1.1.2-.7.1-1.1.1c-.6 0-1.1-.1-1.6-.2s-.9-.3-1.2-.5c-.3-.2-.6-.5-.8-.9-.2-.4-.3-.8-.3-1.3s.1-1 .3-1.3c.2-.3.5-.6.8-.8.3-.2.7-.3 1.2-.4.4-.1.9-.1 1.3-.2l3-.2c.4 0 .8-.1.9-.2.2-.1.3-.3.3-.7s-.2-.6-.5-.8-.9-.3-1.8-.3h-.8c-.2 0-.4.1-.6.2-.2.1-.3.2-.5.4-.1.2-.3.4-.4.7h-2.5zm7.4 1.8c-.3.1-.6.2-.8.3-.3 0-.6.1-.9.1l-1.7.1c-.5 0-.9.1-1.1.3-.3.2-.4.4-.4.8s.2.7.5.9c.3.2.8.3 1.3.3.4 0 .7 0 1.1-.1s.7-.2 1-.4c.3-.2.5-.4.7-.7.2-.3.3-.6.3-1v-.6zM51.9 8h2.9v11.9h-2.9V8z"/></svg>