<?xml version="1.0" encoding="utf-8"?>
<!-- Generator: Adobe Illustrator 21.1.0, SVG Export Plug-In . SVG Version: 6.00 Build 0)  -->
<svg version="1.1" id="Layer_1" xmlns="http://www.w3.org/2000/svg" xmlns:xlink="http://www.w3.org/1999/xlink" x="0px" y="0px"
	 viewBox="0 0 512.8 512.2" style="enable-background:new 0 0 512.8 512.2;" xml:space="preserve">
<style type="text/css">
	.st0{fill:url(#SVGID_1_);}
	.st1{fill:#FFFFFF;}
	.st2{fill:#EFEFEF;}
	.st3{fill:url(#SVGID_2_);}
	.st4{fill:url(#SVGID_3_);}
	.st5{fill:url(#SVGID_4_);}
	.st6{fill:url(#SVGID_5_);}
	.st7{fill:url(#SVGID_6_);}
</style>
<g id="partly_cloudy_night">
	<path d="M136.6,229.8C89.9,183.5,88.2,108,130.1,53.5C65,83.9,36.8,161.3,67.1,226.4s107.7,93.3,172.9,63
		c19.2-8.9,35.9-22.4,48.7-39.3C237.9,275.8,176.6,269.5,136.6,229.8z"/>
	
		<linearGradient id="SVGID_1_" gradientUnits="userSpaceOnUse" x1="157.3574" y1="457.16" x2="157.3574" y2="211.32" gradientTransform="matrix(1 0 0 -1 0 512)">
		<stop  offset="0" style="stop-color:#FBF49E"/>
		<stop  offset="0.99" style="stop-color:#FAA61A"/>
	</linearGradient>
	<path class="st0" d="M122.1,230.8C75.4,184.5,73.8,109,115.7,54.5c-65.1,30.3-93.3,107.7-63,172.9s107.7,93.3,172.9,63
		c19.2-8.9,35.9-22.4,48.7-39.3C223.5,276.8,162.2,270.5,122.1,230.8z"/>
	<path d="M188.8,57.7l12.9,22.4L228,85l-18.3,18.7l3.3,25.4l-24.2-10.9l-24.3,10.9l3.3-25.4L149.6,85l26.3-4.8L188.8,57.7"/>
	<path d="M230.8,159.2l9,15l18.2,3.2l-12.7,12.5l2.3,16.9l-16.8-7.2l-16.8,7.2l2.3-16.9l-12.7-12.5l18.2-3.2L230.8,159.2"/>
	<path d="M138.9,286.5c30.5,0,55.2,25.7,55.2,57.4s-24.7,57.4-55.2,57.4s-55.2-25.7-55.2-57.4S108.3,286.5,138.9,286.5z"/>
	<path d="M307.8,198.4c64.1,0,116.1,45.4,116.1,101.4s-52,101.4-116.1,101.4s-116.1-45.4-116.1-101.4S243.6,198.4,307.8,198.4z"/>
	<path d="M146.3,343.6h255.2c20.3,0,36.7,12.9,36.7,28.9s-16.4,28.9-36.7,28.9H146.3c-20.3,0-36.7-12.9-36.7-28.9
		S126,343.6,146.3,343.6z"/>
	<path d="M210.6,243.4c38.1,0,69.1,32.1,69.1,71.7s-30.9,71.8-69.1,71.8s-69.1-32.1-69.1-71.8S172.4,243.4,210.6,243.4z"/>
	<path d="M406.5,257.7c38.1,0,69.1,32.1,69.1,71.8s-30.9,71.8-69.1,71.8s-69.1-32.1-69.1-71.8S368.3,257.7,406.5,257.7z"/>
	<path d="M143.6,294.2c30.5,0,55.2,24.7,55.2,55.2s-24.7,55.2-55.2,55.2s-55.2-24.7-55.2-55.2S113.1,294.2,143.6,294.2L143.6,294.2z
		"/>
	<path d="M312.3,209.5c64.1,0,116,43.7,116,97.5s-52,97.5-116,97.5s-116-43.7-116-97.5S248.2,209.5,312.3,209.5z"/>
	<path d="M151,349.1h255c20.2,0,36.7,12.4,36.7,27.8s-16.4,27.8-36.7,27.8H151c-20.2,0-36.7-12.4-36.7-27.8S130.7,349.1,151,349.1z"
		/>
	<path d="M215.2,252.7c38.1,0,69,30.9,69,69s-30.9,69-69,69s-69-30.9-69-69S177.1,252.7,215.2,252.7L215.2,252.7z"/>
	<path d="M410.9,266.5c38.1,0,69,30.9,69,69s-30.9,69-69,69s-69-30.9-69-69S372.8,266.5,410.9,266.5z"/>
	<path class="st1" d="M173.8,57.7l12.9,22.4L213,85l-18.3,18.7l3.3,25.4l-24.2-10.9l-24.3,10.9l3.3-25.4L134.6,85l26.3-4.8
		L173.8,57.7"/>
	<path class="st1" d="M215.8,159.2l9,15l18.2,3.2l-12.7,12.5l2.3,16.9l-16.8-7.2l-16.8,7.2l2.3-16.9l-12.7-12.5l18.2-3.2
		L215.8,159.2"/>
	<path class="st2" d="M120.9,287.3c30.9,0,56,26,56,58.2s-25.1,58.2-56,58.2s-56-26-56-58.2S90,287.3,120.9,287.3z"/>
	<path class="st2" d="M292.2,198c65,0,117.8,46,117.8,102.8s-52.7,102.8-117.8,102.8s-117.8-46-117.8-102.8S227.1,198,292.2,198z"/>
	<path class="st2" d="M128.4,345.2h258.8c20.5,0,37.2,13.1,37.2,29.3s-16.7,29.3-37.2,29.3H128.4c-20.6,0-37.2-13.1-37.2-29.3
		S107.9,345.2,128.4,345.2z"/>
	<path class="st2" d="M193.6,243.6c38.7,0,70,32.6,70,72.8s-31.4,72.8-70,72.8s-70-32.6-70-72.8S154.9,243.6,193.6,243.6z"/>
	<path class="st2" d="M392.2,258.1c38.7,0,70,32.6,70,72.8s-31.4,72.8-70,72.8s-70-32.6-70-72.8S353.5,258.1,392.2,258.1z"/>
	
		<linearGradient id="SVGID_2_" gradientUnits="userSpaceOnUse" x1="125.67" y1="302.4" x2="125.67" y2="106.6" gradientTransform="matrix(1 0 0 -1 0 512)">
		<stop  offset="0" style="stop-color:#A5A5A5"/>
		<stop  offset="1" style="stop-color:#4F4F50"/>
	</linearGradient>
	<path class="st3" d="M125.7,295.1c30.9,0,56,25.1,56,56s-25.1,56-56,56s-56-25.1-56-56S94.7,295.1,125.7,295.1L125.7,295.1z"/>
	
		<linearGradient id="SVGID_3_" gradientUnits="userSpaceOnUse" x1="296.76" y1="302.4" x2="296.76" y2="106.6" gradientTransform="matrix(1 0 0 -1 0 512)">
		<stop  offset="0" style="stop-color:#A5A5A5"/>
		<stop  offset="1" style="stop-color:#4F4F50"/>
	</linearGradient>
	<path class="st4" d="M296.8,209.2c65,0,117.6,44.3,117.6,98.9S361.7,407,296.8,407s-117.6-44.3-117.6-98.9S231.8,209.2,296.8,209.2
		z"/>
	
		<linearGradient id="SVGID_4_" gradientUnits="userSpaceOnUse" x1="262.45" y1="302.4" x2="262.45" y2="106.6" gradientTransform="matrix(1 0 0 -1 0 512)">
		<stop  offset="0" style="stop-color:#A5A5A5"/>
		<stop  offset="1" style="stop-color:#4F4F50"/>
	</linearGradient>
	<path class="st5" d="M133.2,350.8h258.5c20.5,0,37.2,12.6,37.2,28.1s-16.6,28.1-37.2,28.1H133.2c-20.5,0-37.2-12.6-37.2-28.1
		S112.7,350.8,133.2,350.8z"/>
	
		<linearGradient id="SVGID_5_" gradientUnits="userSpaceOnUse" x1="198.31" y1="302.4" x2="198.31" y2="106.6" gradientTransform="matrix(1 0 0 -1 0 512)">
		<stop  offset="0" style="stop-color:#A5A5A5"/>
		<stop  offset="1" style="stop-color:#4F4F50"/>
	</linearGradient>
	<path class="st6" d="M198.3,253c38.7,0,70,31.3,70,70s-31.3,70-70,70s-70-31.3-70-70S159.7,253,198.3,253z"/>
	
		<linearGradient id="SVGID_6_" gradientUnits="userSpaceOnUse" x1="396.72" y1="302.4" x2="396.72" y2="106.6" gradientTransform="matrix(1 0 0 -1 0 512)">
		<stop  offset="0" style="stop-color:#A5A5A5"/>
		<stop  offset="1" style="stop-color:#4F4F50"/>
	</linearGradient>
	<path class="st7" d="M396.7,267c38.7,0,70,31.3,70,70s-31.3,70-70,70s-70-31.3-70-70l0,0C326.7,298.3,358.1,267,396.7,267z"/>
</g>
</svg>
